<?xml version="1.0" encoding="utf-8"?>
<!-- Generator: Adobe Illustrator 17.1.0, SVG Export Plug-In . SVG Version: 6.00 Build 0)  -->
<!DOCTYPE svg PUBLIC "-//W3C//DTD SVG 1.1//EN" "http://www.w3.org/Graphics/SVG/1.1/DTD/svg11.dtd">
<svg version="1.1" id="Layer_1" xmlns="http://www.w3.org/2000/svg" xmlns:xlink="http://www.w3.org/1999/xlink" x="0px" y="0px"
	 viewBox="0 0 228 56" enable-background="new 0 0 228 56" xml:space="preserve">
<g>
	<path fill="#8DC0E3" d="M224.692,38.324c0,5.232-4.94,9.474-11.034,9.474H19.106c-6.094,0-11.034-4.241-11.034-9.474V15.997
		c0-5.232,4.94-9.474,11.034-9.474h194.551c6.094,0,11.034,4.241,11.034,9.474V38.324z"/>
	<path fill="none" stroke="#103E60" stroke-width="2.3208" stroke-miterlimit="10" d="M224.692,38.324
		c0,5.232-4.94,9.474-11.034,9.474H19.106c-6.094,0-11.034-4.241-11.034-9.474V15.997c0-5.232,4.94-9.474,11.034-9.474h194.551
		c6.094,0,11.034,4.241,11.034,9.474V38.324z"/>
</g>
<g>
	<path fill="#FFFFFF" d="M46.203,18.112l6.487,13.111V18.112h3.285v20.413h-3.475L45.715,25.17v13.355h-3.313V18.112H46.203z"/>
	<path fill="#FFFFFF" d="M70.85,18.112v3.176h-6.08v5.076h5.104v3.176H64.77v5.81h6.352v3.176H60.969V18.112H70.85z"/>
	<path fill="#FFFFFF" d="M79.075,18.112v14.333c0,1.899,0.543,3.312,2.741,3.312c2.227,0,2.742-1.412,2.742-3.312V18.112h3.393
		v13.681c0,1.737-0.081,3.557-1.222,4.995c-1.004,1.275-2.66,2.063-5.157,2.063c-2.389,0-4.071-0.733-5.104-2.036
		c-1.112-1.385-1.222-3.176-1.222-4.995V18.112H79.075z"/>
	<path fill="#FFFFFF" d="M102.826,18.112v3.176h-6.08v5.076h5.104v3.176h-5.104v5.81h6.352v3.176H92.945V18.112H102.826z"/>
	<path fill="#FFFFFF" d="M116.236,21.56h-0.19c0,0-1.656-0.57-3.067-0.57c-1.629,0-2.471,0.733-2.471,2.036
		c0,1.954,1.847,2.741,3.61,4.126c1.629,1.276,2.905,2.769,2.905,5.619c0,3.99-2.498,5.918-6.461,5.918
		c-2.226,0-3.827-0.598-3.827-0.598v-3.176h0.189c0,0,1.846,0.733,3.421,0.733c1.737,0,2.741-0.869,2.741-2.39
		c0-2.035-1.846-2.985-3.827-4.56c-1.385-1.113-2.688-2.39-2.688-5.158c0-3.556,2.117-5.592,6.054-5.592
		c1.927,0,3.61,0.488,3.61,0.488V21.56z"/>
	<path fill="#FFFFFF" d="M136.921,21.56h-0.19c0,0-1.656-0.57-3.067-0.57c-1.629,0-2.471,0.733-2.471,2.036
		c0,1.954,1.847,2.741,3.61,4.126c1.629,1.276,2.905,2.769,2.905,5.619c0,3.99-2.498,5.918-6.461,5.918
		c-2.226,0-3.827-0.598-3.827-0.598v-3.176h0.189c0,0,1.846,0.733,3.421,0.733c1.737,0,2.741-0.869,2.741-2.39
		c0-2.035-1.846-2.985-3.827-4.56c-1.385-1.113-2.688-2.39-2.688-5.158c0-3.556,2.117-5.592,6.054-5.592
		c1.927,0,3.61,0.488,3.61,0.488V21.56z"/>
	<path fill="#FFFFFF" d="M146.801,18.112c1.303,0,3.095,0.054,4.506,0.896c1.575,0.923,2.634,2.796,2.634,5.945
		c0,3.04-1.005,4.994-2.606,6.025c-1.357,0.869-2.959,1.005-4.506,1.005h-1.194v6.542h-3.828V18.112H146.801z M145.634,28.861h1.303
		c0.57,0,1.385-0.026,2.009-0.543c0.706-0.597,0.978-1.737,0.978-3.284c0-1.765-0.354-2.796-1.005-3.312
		c-0.597-0.462-1.357-0.489-1.981-0.489h-1.303V28.861z"/>
	<path fill="#FFFFFF" d="M161.785,18.112v20.413h-3.828V18.112H161.785z"/>
	<path fill="#FFFFFF" d="M176.66,18.112v3.176h-6.08v5.076h5.104v3.176h-5.104v5.81h6.352v3.176h-10.152V18.112H176.66z"/>
	<path fill="#FFFFFF" d="M184.967,18.112v17.155h5.456v3.258h-9.284V18.112H184.967z"/>
</g>
</svg>
