<?xml version="1.0" encoding="utf-8"?>
<!-- Generator: Adobe Illustrator 17.1.0, SVG Export Plug-In . SVG Version: 6.00 Build 0)  -->
<!DOCTYPE svg PUBLIC "-//W3C//DTD SVG 1.1//EN" "http://www.w3.org/Graphics/SVG/1.1/DTD/svg11.dtd">
<svg version="1.1" id="Layer_1" xmlns="http://www.w3.org/2000/svg" xmlns:xlink="http://www.w3.org/1999/xlink" x="0px" y="0px"
	 viewBox="0 0 224 53" enable-background="new 0 0 224 53" xml:space="preserve">
<g>
	<path fill="#8DC0E3" d="M220.532,38.324c0,5.232-4.94,9.474-11.034,9.474H14.946c-6.094,0-11.034-4.241-11.034-9.474V15.997
		c0-5.232,4.94-9.474,11.034-9.474h194.551c6.094,0,11.034,4.241,11.034,9.474V38.324z"/>
	<path fill="none" stroke="#103E60" stroke-width="2.3208" stroke-miterlimit="10" d="M220.532,38.324
		c0,5.232-4.94,9.474-11.034,9.474H14.946c-6.094,0-11.034-4.241-11.034-9.474V15.997c0-5.232,4.94-9.474,11.034-9.474h194.551
		c6.094,0,11.034,4.241,11.034,9.474V38.324z"/>
</g>
<g>
	<g>
		<path fill="#FFFFFF" d="M55.167,17.589c1.52,0,2.985,0,4.234,0.732c1.086,0.651,2.063,1.846,2.063,4.235
			c0,4.207-3.013,4.506-3.013,4.506s3.773,0.217,3.773,5.185c0,2.579-1.005,3.99-2.308,4.805c-1.521,0.95-3.23,0.95-4.724,0.95
			h-5.212V17.589H55.167z M53.646,25.841h1.466c0.543,0,1.14,0,1.656-0.353c0.516-0.354,0.814-1.005,0.814-2.253
			c0-1.331-0.326-2.009-0.842-2.335c-0.489-0.299-1.031-0.299-1.548-0.299h-1.547V25.841z M53.646,34.989h1.818
			c0.543,0,1.276,0,1.928-0.435c0.597-0.407,0.95-1.059,0.95-2.552s-0.354-2.172-1.005-2.579s-1.356-0.407-1.954-0.407h-1.737
			V34.989z"/>
		<path fill="#FFFFFF" d="M76.177,17.589v3.176h-6.08v5.076H75.2v3.176h-5.104v5.81h6.352v3.176H66.296V17.589H76.177z"/>
		<path fill="#FFFFFF" d="M84.483,17.589v20.413h-3.828V17.589H84.483z"/>
		<path fill="#FFFFFF" d="M100.118,17.589v3.23h-4.126v17.183h-3.828V20.819h-4.099v-3.23H100.118z"/>
		<path fill="#FFFFFF" d="M107.394,30.103v7.899h-3.692V17.589h5.565c1.167,0,3.067,0,4.506,1.004
			c1.249,0.869,2.09,2.471,2.09,5.049c0,3.014-1.14,4.805-2.877,5.701l3.638,8.659h-4.126l-3.041-7.899H107.394z M107.394,26.954
			h1.9c0.434,0,1.248,0.026,1.818-0.407c0.57-0.435,0.868-1.439,0.868-2.77c0-1.303-0.271-2.171-0.841-2.633
			c-0.57-0.461-1.304-0.461-1.792-0.461h-1.954V26.954z"/>
		<path fill="#FFFFFF" d="M130.275,17.589v3.176h-6.08v5.076h5.104v3.176h-5.104v5.81h6.352v3.176h-10.152V17.589H130.275z"/>
		<path fill="#FFFFFF" d="M145.396,17.589v3.23h-4.126v17.183h-3.828V20.819h-4.099v-3.23H145.396z"/>
		<path fill="#FFFFFF" d="M158.858,17.589v3.176h-6.08v5.076h5.104v3.176h-5.104v5.81h6.352v3.176h-10.152V17.589H158.858z"/>
		<path fill="#FFFFFF" d="M167.138,17.589l6.487,13.111V17.589h3.285v20.413h-3.475l-6.786-13.355v13.355h-3.313V17.589H167.138z"/>
	</g>
</g>
</svg>
