<?xml version="1.0" encoding="utf-8"?>
<!-- Generator: Adobe Illustrator 17.1.0, SVG Export Plug-In . SVG Version: 6.00 Build 0)  -->
<!DOCTYPE svg PUBLIC "-//W3C//DTD SVG 1.1//EN" "http://www.w3.org/Graphics/SVG/1.1/DTD/svg11.dtd">
<svg version="1.1" id="Layer_1" xmlns="http://www.w3.org/2000/svg" xmlns:xlink="http://www.w3.org/1999/xlink" x="0px" y="0px"
	 viewBox="0 0 1099 674" enable-background="new 0 0 1099 674" xml:space="preserve">
<g>
	<path fill="#C0C0C0" d="M976.26,570.552c0.219,3.11-2.146,5.835-5.257,6.054l-846.781,59.665c-3.11,0.219-5.835-2.146-6.054-5.257
		L80.044,89.944c-0.219-3.11,2.146-5.835,5.257-6.054l846.781-59.665c3.11-0.219,5.835,2.146,6.054,5.257L976.26,570.552z"/>
	<path fill="none" stroke="#686868" stroke-width="2" stroke-miterlimit="10" d="M976.26,570.552
		c0.219,3.11-2.146,5.835-5.257,6.054l-846.781,59.665c-3.11,0.219-5.835-2.146-6.054-5.257L80.044,89.944
		c-0.219-3.11,2.146-5.835,5.257-6.054l846.781-59.665c3.11-0.219,5.835,2.146,6.054,5.257L976.26,570.552z"/>
</g>
<g>
	<path fill="#C0C0C0" d="M967.414,586.365c0.108,3.116-2.353,5.754-5.469,5.863l-848.369,29.458
		c-3.116,0.108-5.754-2.353-5.863-5.469L88.89,74.132c-0.108-3.116,2.353-5.754,5.469-5.863l848.369-29.458
		c3.116-0.108,5.754,2.353,5.863,5.469L967.414,586.365z"/>
	<path fill="none" stroke="#686868" stroke-width="2" stroke-miterlimit="10" d="M967.414,586.365
		c0.108,3.116-2.353,5.754-5.469,5.863l-848.369,29.458c-3.116,0.108-5.754-2.353-5.863-5.469L88.89,74.132
		c-0.108-3.116,2.353-5.754,5.469-5.863l848.369-29.458c3.116-0.108,5.754,2.353,5.863,5.469L967.414,586.365z"/>
</g>
<g>
	<path fill="#C0C0C0" d="M958.261,601.454c0,3.118-2.551,5.669-5.669,5.669h-848.88c-3.118,0-5.669-2.551-5.669-5.669V59.043
		c0-3.118,2.551-5.669,5.669-5.669h848.88c3.118,0,5.669,2.551,5.669,5.669V601.454z"/>
	<path fill="none" stroke="#686868" stroke-width="2" stroke-miterlimit="10" d="M958.261,601.454c0,3.118-2.551,5.669-5.669,5.669
		h-848.88c-3.118,0-5.669-2.551-5.669-5.669V59.043c0-3.118,2.551-5.669,5.669-5.669h848.88c3.118,0,5.669,2.551,5.669,5.669
		V601.454z"/>
</g>
</svg>
