<?xml version="1.0" encoding="UTF-8"?>
<!-- Generator: Adobe Illustrator 17.1.0, SVG Export Plug-In . SVG Version: 6.00 Build 0)  -->

<!DOCTYPE svg PUBLIC "-//W3C//DTD SVG 1.1//EN" "http://www.w3.org/Graphics/SVG/1.1/DTD/svg11.dtd">
<svg version="1.1"  xmlns="http://www.w3.org/2000/svg" xmlns:xlink="http://www.w3.org/1999/xlink" x="0px" y="0px" viewBox="0 0 1014 659" enable-background="new 0 0 1014 659" xml:space="preserve">

  <g transform="translate(18,10)"> <!-- background field 3 -->
    <path d="m 984.299,573.909 c 0.219,3.11 -2.146,5.835 -5.257,6.054 l -846.781,59.664 c -3.11,0.219 -5.835,-2.146 -6.054,-5.257 L 88.083,93.301 c -0.219,-3.11 2.146,-5.835 5.257,-6.054 L 940.121,27.582 c 3.11,-0.219 5.835,2.146 6.054,5.257 l 38.124,541.07 z" style="fill:#67a5da" />
    <path stroke-miterlimit="10" d="m 984.299,573.909 c 0.219,3.11 -2.146,5.835 -5.257,6.054 l -846.781,59.664 c -3.11,0.219 -5.835,-2.146 -6.054,-5.257 L 88.083,93.301 c -0.219,-3.11 2.146,-5.835 5.257,-6.054 L 940.121,27.582 c 3.11,-0.219 5.835,2.146 6.054,5.257 l 38.124,541.07 z" style="fill:none;stroke:#103e60;stroke-width:2;stroke-miterlimit:10" />
  </g>

  <g transform="translate(18,10)"> <!-- background field 2 -->
    <path d="m 975.453,589.721 c 0.108,3.116 -2.353,5.754 -5.469,5.863 l -848.369,29.458 c -3.116,0.108 -5.754,-2.353 -5.863,-5.469 L 96.929,77.488 c -0.108,-3.116 2.353,-5.754 5.469,-5.863 L 950.767,42.167 c 3.116,-0.108 5.754,2.353 5.863,5.469 l 18.823,542.085 z" style="fill:#67a5da" />
    <path stroke-miterlimit="10" d="m 975.453,589.721 c 0.108,3.116 -2.353,5.754 -5.469,5.863 l -848.369,29.458 c -3.116,0.108 -5.754,-2.353 -5.863,-5.469 L 96.929,77.488 c -0.108,-3.116 2.353,-5.754 5.469,-5.863 L 950.767,42.167 c 3.116,-0.108 5.754,2.353 5.863,5.469 l 18.823,542.085 z" style="fill:none;stroke:#103e60;stroke-width:2;stroke-miterlimit:10" />
  </g>

  <g transform="translate(18,10)"> <!-- background field 1 -->
    <path d="m 966.3,604.81 c 0,3.118 -2.551,5.669 -5.669,5.669 l -848.88,0 c -3.118,0 -5.669,-2.551 -5.669,-5.669 l 0,-542.411 c 0,-3.118 2.551,-5.669 5.669,-5.669 l 848.88,0 c 3.118,0 5.669,2.551 5.669,5.669 l 0,542.411 z" style="fill:#67a5da" />
    <path stroke-miterlimit="10" d="m 966.3,604.81 c 0,3.118 -2.551,5.669 -5.669,5.669 l -848.88,0 c -3.118,0 -5.669,-2.551 -5.669,-5.669 l 0,-542.411 c 0,-3.118 2.551,-5.669 5.669,-5.669 l 848.88,0 c 3.118,0 5.669,2.551 5.669,5.669 l 0,542.411 z" style="fill:none;stroke:#103e60;stroke-width:2;stroke-miterlimit:10" />
  </g>

  <g> <!-- RISIKO Label-->
    <path d="m 139.944,162.263 7.81,33.292 -20.291,4.76 -21.433,-91.372 27.096,-6.355 c 6.075,-1.425 15.066,-3.534 23.282,-0.206 6.951,2.856 12.307,9.291 14.986,20.713 3.078,13.122 0.276,22.497 -6.353,28.666 l 24.267,34.047 -22.843,5.358 -19.353,-30.585 -7.168,1.682 z m -3.961,-16.889 7.169,-1.682 c 1.701,-0.399 4.86,-1.14 6.555,-3.205 1.667,-2.185 2.092,-6.387 0.866,-11.612 -1.141,-4.86 -3.089,-8.249 -5.703,-9.558 -2.587,-1.188 -5.624,-0.476 -7.204,-0.105 l -7.412,1.739 5.729,24.423 z" id="path33" style="fill:#e6342b" />
    
    <path d="m 198.853,87.169 21.434,91.372 -21.264,4.988 -21.433,-91.372 21.263,-4.988 z" id="path35" style="fill:#e6342b" />
    
    <path d="m 261.719,91.78 -0.85,0.2 c 0,0 -9.161,-0.8 -15.601,0.71 -6.075,1.425 -8.271,4.633 -7.188,9.25 1.625,6.925 9.105,8.76 17.407,12.453 9.145,4.008 17.366,9.002 20.644,22.975 4.218,17.982 -4.645,29.932 -24.571,34.606 -10.57,2.479 -18.974,1.631 -18.974,1.631 l -3.962,-16.89 0.851,-0.2 c 0,0 10.247,1.058 17.172,-0.567 6.44,-1.511 9.431,-5.161 8.177,-10.507 -1.854,-7.897 -11.142,-10.334 -20.1,-14.642 -7.516,-3.621 -15.016,-8.271 -18.009,-21.029 -3.933,-16.768 4.2,-28.546 23.155,-32.992 9.477,-2.223 17.916,-1.767 17.916,-1.767 l 3.933,16.769 z" id="path37" style="fill:#e6342b" />
    
    <path d="m 293.376,64.998 21.434,91.372 -21.263,4.987 -21.433,-91.371 21.262,-4.988 z" id="path39" style="fill:#e6342b" />
       
    <path d="m 328.975,56.647 8.351,35.601 12.67,-40.531 20.533,-4.817 -13.426,40.581 35.467,50.648 -23.086,5.415 -21.979,-33.045 -3.794,8.966 6.697,28.554 -20.776,4.874 -21.433,-91.372 20.776,-4.874 z" id="path41" style="fill:#e6342b" />

    <path d="m 452.618,113.789 c -3.973,8.751 -12.566,14.741 -23.866,17.391 -11.422,2.679 -21.418,1.05 -28.896,-5.144 -8.106,-6.688 -12.836,-18.653 -16.398,-33.841 -3.99,-17.011 -4.333,-28.852 -0.081,-38.053 4.094,-8.78 12.322,-14.684 23.744,-17.363 11.422,-2.679 21.539,-1.079 29.018,5.116 8.106,6.687 12.692,18.045 16.227,33.112 3.989,17.011 4.503,29.58 0.252,38.782 z m -19.605,-7.067 c 1.189,-4.765 0.465,-11.133 -2.927,-25.592 -3.392,-14.459 -5.574,-20.485 -8.759,-24.225 -2.621,-2.975 -5.899,-4.385 -10.518,-3.302 -4.495,1.054 -6.805,3.775 -7.829,7.605 -1.19,4.766 -0.466,11.133 2.926,25.593 3.392,14.458 5.574,20.484 8.759,24.223 2.621,2.975 5.9,4.385 10.396,3.331 4.617,-1.083 6.928,-3.804 7.952,-7.633 z" id="path43" style="fill:#e6342b" />
  </g>

  <g id="g21" transform="translate(18,10)"> <!-- Exclamation marks-->
    <path stroke-miterlimit="10" d="m 74.303,106.913 26.166,79.714 c 0,0 -6.242,-1.551 -12.503,1.14 -6.261,2.69 -9.433,8.286 -9.433,8.286 L 38.717,122.204 c 0,0 3.911,-8.432 15.344,-13.344 11.433,-4.914 20.242,-1.947 20.242,-1.947 z m 33.827,94.284 c 2.883,6.711 -0.219,14.488 -6.93,17.371 -6.711,2.883 -14.488,-0.219 -17.371,-6.93 -2.883,-6.711 0.219,-14.488 6.93,-17.372 6.711,-2.884 14.488,0.22 17.371,6.931 z" id="path47"  style="fill:#103e60;stroke:#0c2d41;stroke-width:0.1559;stroke-miterlimit:10" />
    <path stroke-miterlimit="10" d="m 35.582,144.75 31.357,53.927 c 0,0 -4.78,-0.162 -8.917,2.762 -4.137,2.924 -5.579,7.485 -5.579,7.485 L 12.066,161.373 c 0,0 1.54,-6.737 9.096,-12.078 7.556,-5.341 14.42,-4.545 14.42,-4.545 z m 39.182,63.338 c 3.135,4.435 2.081,10.571 -2.353,13.705 -4.435,3.135 -10.571,2.081 -13.705,-2.353 -3.134,-4.434 -2.081,-10.571 2.353,-13.705 4.434,-3.135 10.57,-2.081 13.705,2.353 z" id="path51" style="fill:#103e60;stroke:#0c2d41;stroke-width:0.1159;stroke-miterlimit:10" />
    <path stroke-miterlimit="10" d="m 484.299,7.941 c 12.425,-0.684 19.678,5.13 19.678,5.13 l -2.825,83.851 c 0,0 -5.329,-3.601 -12.133,-3.227 -6.804,0.374 -11.706,4.539 -11.706,4.539 L 465.304,15.199 c -10e-4,-10e-4 6.569,-6.575 18.995,-7.258 z m 5.108,92.817 c 7.293,-0.401 13.53,5.185 13.932,12.478 0.401,7.293 -5.185,13.53 -12.478,13.932 -7.293,0.401 -13.53,-5.185 -13.932,-12.478 -0.402,-7.293 5.185,-13.53 12.478,-13.932 z" id="path55"  style="fill:#103e60;stroke:#0c2d41;stroke-width:0.1559;stroke-miterlimit:10" />
    <path stroke-miterlimit="10" d="m 531.747,29.53 c 9.142,1.424 13.518,6.774 13.518,6.774 L 530.243,96.85 c 0,0 -3.319,-3.443 -8.325,-4.223 -5.007,-0.78 -9.215,1.491 -9.215,1.491 l 4.107,-62.246 c 0,-0.001 5.795,-3.766 14.937,-2.342 z m -10.639,68.294 c 5.366,0.836 9.038,5.864 8.202,11.229 -0.836,5.366 -5.864,9.038 -11.229,8.202 -5.366,-0.836 -9.038,-5.864 -8.202,-11.229 0.836,-5.366 5.863,-9.038 11.229,-8.202 z" id="path59" style="fill:#103e60;stroke:#0c2d41;stroke-width:0.1159;stroke-miterlimit:10" />  
  </g>

</svg>